
<?xml version="1.0" standalone="no"?>
<!DOCTYPE svg PUBLIC "-//W3C//DTD SVG 20010904//EN"
 "http://www.w3.org/TR/2001/REC-SVG-20010904/DTD/svg10.dtd">
<svg version="1.0" xmlns="http://www.w3.org/2000/svg"
 width="1024.000000pt" height="1024.000000pt" viewBox="0 0 1024.000000 1024.000000"
 preserveAspectRatio="xMidYMid meet">
<metadata>
Created by potrace 1.14, written by Peter Selinger 2001-2017
</metadata>
<g transform="translate(0.000000,1024.000000) scale(0.100000,-0.100000)"
fill="#000000" stroke="none">
<path d="M9 9989 c-5 -3 -8 -998 -7 -2455 l3 -2449 1663 -1 c914 -1 1667 -2
1672 -3 7 -1 9 -411 8 -1223 l-3 -1223 -1672 0 -1673 1 0 -1223 0 -1223 193 0
c1274 -2 3151 0 3154 3 2 2 3 553 3 1223 l0 1219 1675 0 c1673 0 1675 0 1676
-20 0 -11 1 -561 1 -1222 l1 -1203 51 0 c65 -1 3186 -1 3245 0 32 0 42 3 38
13 -3 8 -1 20 3 27 5 8 6 18 3 24 -9 13 -7 171 1 184 3 6 3 13 -2 16 -9 5 -7
99 2 115 4 5 3 12 -1 14 -9 6 -8 161 1 175 3 6 3 13 -2 16 -9 5 -7 99 2 115 4
5 3 12 -1 14 -9 6 -8 161 1 175 3 6 3 13 -2 16 -9 5 -7 99 2 115 4 5 3 12 -1
14 -9 6 -8 161 1 175 3 6 3 13 -2 16 -9 5 -7 99 2 115 4 5 3 12 -1 14 -9 6 -8
161 1 175 3 6 3 13 -2 16 -9 5 -7 99 2 115 4 5 3 12 -1 14 -9 6 -8 161 1 175
3 6 3 13 -2 16 -9 5 -7 99 2 115 4 5 3 12 -1 14 -9 6 -8 161 1 175 3 6 3 13
-2 16 -9 5 -7 99 2 115 4 5 3 12 -1 14 -9 6 -8 161 1 175 3 6 3 13 -2 16 -9 5
-7 99 2 115 4 5 3 12 -1 14 -9 6 -8 161 1 175 3 6 3 13 -2 16 -9 5 -7 99 2
115 4 5 3 12 -1 14 -9 6 -8 161 1 175 3 6 3 13 -2 16 -9 5 -7 99 2 115 4 5 3
12 -1 14 -9 6 -8 161 1 175 3 6 3 13 -2 16 -9 5 -7 99 2 115 4 5 3 12 -1 14
-9 6 -8 161 1 175 3 6 3 13 -2 16 -9 5 -7 99 2 115 4 5 3 12 -1 14 -9 6 -8
161 1 175 3 6 3 13 -2 16 -9 5 -7 99 2 115 4 5 3 12 -1 14 -9 6 -8 161 1 175
3 6 3 13 -2 16 -9 5 -7 99 2 115 4 5 3 12 -1 14 -9 6 -8 161 1 175 3 6 3 13
-1 15 -10 6 -9 89 1 105 3 6 2 13 -4 17 -6 4 -8 10 -5 15 3 4 -1 10 -8 12 -6
2 -1512 4 -3344 3 l-3333 -1 0 2453 c0 1349 -3 2453 -7 2454 -32 4 -3327 3
-3334 -2z"/>
<path d="M6724 9992 l-21 -3 0 -1220 c0 -1116 1 -1219 16 -1220 79 -5 3310 -3
3321 2 13 6 15 151 13 1221 -1 667 -2 1215 -2 1218 -1 5 -3291 7 -3327 2z"/>
</g>
</svg>
