<?xml version="1.0" encoding="utf-8"?>
<!-- Generator: Adobe Illustrator 27.6.1, SVG Export Plug-In . SVG Version: 6.00 Build 0)  -->
<svg version="1.1" id="Layer_1" xmlns="http://www.w3.org/2000/svg" xmlns:xlink="http://www.w3.org/1999/xlink" x="0px" y="0px"
	 viewBox="0 0 40.2 42.3" style="enable-background:new 0 0 40.2 42.3;" xml:space="preserve">
<style type="text/css">
	.st0{fill:#1D1D1B;}
</style>
<polygon class="st0" points="6.7,41.6 6.4,41.6 6.3,40.2 5.5,41.7 5,40.2 4.6,41.6 4.3,41.6 5,39.3 5.5,41 6.5,39.3 "/>
<path class="st0" d="M8.5,40.8c0-0.2-0.1-0.3-0.3-0.3s-0.3,0.1-0.3,0.3H8.5z M7.8,41c0,0.2,0.1,0.3,0.4,0.3c0.1,0,0.2,0,0.3-0.2
	l0.2,0.1c-0.1,0.2-0.3,0.3-0.5,0.3c-0.4,0-0.6-0.2-0.6-0.6c0-0.4,0.3-0.7,0.7-0.7s0.6,0.3,0.6,0.7V41L7.8,41L7.8,41z"/>
<path class="st0" d="M10,40.4c0.1-0.1,0.2-0.2,0.4-0.2c0.2,0,0.2,0,0.3,0.2c0.1-0.2,0.2-0.2,0.4-0.2c0.2,0,0.4,0.1,0.4,0.3
	c0,0.1,0,0.1,0,0.2l-0.1,0.7H11l0.1-0.7c0-0.1,0-0.1,0-0.2c0-0.1-0.1-0.2-0.2-0.2c-0.1,0-0.1,0-0.2,0.1c0,0-0.1,0.1-0.1,0.3
	l-0.1,0.7h-0.3l0.1-0.8c0-0.1,0-0.1,0-0.1c0-0.1-0.1-0.2-0.2-0.2c-0.1,0-0.2,0-0.2,0.1c0,0-0.1,0.1-0.1,0.2l-0.1,0.7H9.6l0.2-1.3H10
	L10,40.4L10,40.4z"/>
<path class="st0" d="M12.6,41c0,0.2,0.1,0.4,0.4,0.4c0.2,0,0.4-0.2,0.4-0.4c0-0.2-0.1-0.4-0.4-0.4C12.8,40.5,12.6,40.7,12.6,41
	 M12.7,40.4c0.2-0.1,0.2-0.2,0.4-0.2c0.3,0,0.6,0.3,0.6,0.6c0,0.4-0.3,0.7-0.7,0.7c-0.2,0-0.3-0.1-0.4-0.2l0,0.2h-0.3l0.3-2.3h0.3
	L12.7,40.4L12.7,40.4z"/>
<path class="st0" d="M15.4,40.8c0-0.2-0.1-0.3-0.3-0.3s-0.3,0.1-0.3,0.3H15.4z M14.7,41c0,0.2,0.1,0.3,0.4,0.3c0.1,0,0.2,0,0.3-0.2
	l0.2,0.1c-0.1,0.2-0.3,0.3-0.5,0.3c-0.4,0-0.6-0.2-0.6-0.6c0-0.4,0.3-0.7,0.7-0.7s0.6,0.3,0.6,0.7V41L14.7,41L14.7,41z"/>
<path class="st0" d="M16.9,40.4c0.1-0.1,0.2-0.1,0.3-0.1c0.1,0,0.2,0,0.2,0.1l-0.2,0.2c-0.1,0-0.1-0.1-0.2-0.1c-0.1,0-0.1,0-0.2,0.1
	c0,0.1-0.1,0.2-0.1,0.3l-0.1,0.6h-0.3l0.2-1.3h0.3L16.9,40.4L16.9,40.4z"/>
<path class="st0" d="M19.4,40.9c0,0.2,0.2,0.4,0.4,0.4s0.4-0.2,0.4-0.5c0-0.2-0.1-0.4-0.4-0.4S19.4,40.7,19.4,40.9 M20.5,40.9
	c0,0.4-0.3,0.7-0.7,0.7s-0.7-0.3-0.7-0.7s0.3-0.7,0.7-0.7S20.5,40.5,20.5,40.9"/>
<path class="st0" d="M21.5,41.6h-0.3l0.1-1h-0.2l0-0.3h0.2l0.1-0.6c0-0.2,0.1-0.3,0.1-0.3c0.1-0.1,0.2-0.1,0.3-0.1
	c0.1,0,0.1,0,0.2,0.1l0,0.3c-0.1,0-0.1-0.1-0.1-0.1c-0.1,0-0.1,0.1-0.2,0.3l-0.1,0.5H22l0,0.3h-0.3L21.5,41.6L21.5,41.6z"/>
<path class="st0" d="M24.1,40.4h0.1c0.2,0,0.3,0,0.4-0.1c0.1-0.1,0.1-0.2,0.1-0.3c0-0.1-0.1-0.2-0.2-0.3c0,0-0.1,0-0.2,0h-0.1
	L24.1,40.4L24.1,40.4z M25,41.6h-0.3l-0.5-0.8h-0.1L24,41.6h-0.3l0.2-2.1h0.4c0.2,0,0.4,0,0.5,0.1c0.1,0.1,0.2,0.3,0.2,0.5
	s-0.1,0.3-0.2,0.5c-0.1,0.1-0.2,0.1-0.3,0.2L25,41.6L25,41.6z"/>
<path class="st0" d="M26.2,40.4L26.2,40.4c0.2,0,0.3,0,0.4-0.1c0.1-0.1,0.1-0.2,0.1-0.3c0-0.2-0.1-0.2-0.3-0.2h-0.1L26.2,40.4z
	 M26.1,41.3h0.2c0.2,0,0.2,0,0.3-0.1c0.1-0.1,0.1-0.2,0.1-0.3c0-0.2-0.1-0.3-0.4-0.3h-0.2L26.1,41.3L26.1,41.3z M26.4,39.5
	c0.2,0,0.4,0,0.5,0.1C27,39.7,27,39.9,27,40c0,0.2-0.1,0.4-0.3,0.5c0.1,0,0.2,0,0.2,0.1c0.1,0.1,0.1,0.2,0.1,0.3
	c0,0.2-0.1,0.4-0.3,0.5c-0.1,0.1-0.2,0.1-0.5,0.1h-0.5l0.2-2.1L26.4,39.5L26.4,39.5z"/>
<polygon class="st0" points="28.2,41.6 27.9,41.6 28.1,39.5 28.5,39.5 "/>
<path class="st0" d="M32.2,40.6c0,0.2-0.1,0.4-0.2,0.6c-0.2,0.3-0.4,0.4-0.8,0.4c-0.6,0-1-0.4-1-1c0-0.7,0.5-1.1,1.1-1.1
	c0.4,0,0.6,0.1,0.9,0.4L32,40.1c-0.2-0.2-0.4-0.3-0.7-0.3c-0.4,0-0.7,0.3-0.7,0.8c0,0.4,0.3,0.8,0.7,0.8c0.3,0,0.5-0.2,0.6-0.5h-0.5
	l0-0.3H32.2L32.2,40.6z"/>
<path class="st0" d="M33.4,40.4c0.1-0.1,0.2-0.1,0.3-0.1c0.1,0,0.2,0,0.2,0.1l-0.2,0.2c-0.1,0-0.1-0.1-0.2-0.1c-0.1,0-0.1,0-0.2,0.1
	c0,0.1-0.1,0.2-0.1,0.3l-0.1,0.6h-0.3l0.2-1.3h0.3L33.4,40.4L33.4,40.4z"/>
<path class="st0" d="M34.8,40.9c0,0.2,0.2,0.4,0.4,0.4s0.4-0.2,0.4-0.5c0-0.2-0.2-0.4-0.4-0.4S34.8,40.7,34.8,40.9 M35.8,40.9
	c0,0.4-0.3,0.7-0.7,0.7s-0.7-0.3-0.7-0.7s0.3-0.7,0.7-0.7S35.8,40.5,35.8,40.9"/>
<path class="st0" d="M37.8,41c0,0.2-0.1,0.3-0.2,0.4c-0.1,0.1-0.2,0.2-0.4,0.2c-0.3,0-0.5-0.2-0.5-0.4c0,0,0-0.1,0-0.2l0.1-0.7h0.3
	L37,41c0,0,0,0.1,0,0.1c0,0.1,0.1,0.2,0.2,0.2c0.2,0,0.2-0.1,0.3-0.3l0.1-0.8h0.3C37.8,40.3,37.8,41,37.8,41z"/>
<path class="st0" d="M39,41c0,0.2,0.2,0.4,0.4,0.4s0.4-0.2,0.4-0.5c0-0.2-0.1-0.4-0.3-0.4C39.1,40.5,39,40.7,39,41 M39,40.4
	c0.1-0.1,0.2-0.2,0.4-0.2c0.3,0,0.6,0.3,0.6,0.6c0,0.4-0.3,0.7-0.7,0.7c-0.2,0-0.3,0-0.4-0.2l-0.1,0.9h-0.3l0.2-2h0.3L39,40.4
	L39,40.4z"/>
<polygon class="st0" points="0.4,33.5 0.4,34.2 1.6,34.2 1.6,37.5 2.5,37.5 2.5,34.2 3.7,34.2 3.7,33.5 "/>
<path class="st0" d="M4.9,33.5h0.9l1.4,4H6.4l-0.3-0.8H4.6l-0.3,0.8H3.5C3.5,37.5,4.9,33.5,4.9,33.5z M4.8,36h1l-0.5-1.6
	C5.4,34.4,4.8,36,4.8,36z"/>
<polygon class="st0" points="10.3,33.5 10.3,34.2 9.1,34.2 9.1,37.5 8.3,37.5 8.3,34.2 7.1,34.2 7.1,33.5 "/>
<path class="st0" d="M13.4,33.6c0.1,0.1,0.3,0.2,0.4,0.3c0.1,0.1,0.1,0.2,0.2,0.3s0.1,0.3,0.1,0.4c0,0.2-0.1,0.4-0.1,0.6
	c-0.1,0.2-0.3,0.3-0.5,0.4c0.2,0.1,0.3,0.2,0.4,0.3s0.1,0.3,0.1,0.6v0.3c0,0.2,0,0.3,0,0.4c0,0.1,0.1,0.2,0.2,0.2v0.1h-0.9
	c0-0.1,0-0.2-0.1-0.2c0-0.1,0-0.2,0-0.3v-0.4c0-0.3-0.1-0.4-0.1-0.5C12.9,36,12.7,36,12.5,36h-0.8v1.6h-0.8v-4h1.9
	C13,33.5,13.3,33.5,13.4,33.6 M11.7,34.2v1.1h0.9c0.2,0,0.3,0,0.4-0.1c0.2-0.1,0.2-0.2,0.2-0.5c0-0.2-0.1-0.4-0.2-0.5
	c-0.1,0-0.2-0.1-0.4-0.1H11.7L11.7,34.2z"/>
<path class="st0" d="M16,33.5H17l1.4,4h-0.9l-0.3-0.8h-1.5l-0.3,0.8h-0.9C14.6,37.5,16,33.5,16,33.5z M16,36h1l-0.5-1.6L16,36z"/>
<path class="st0" d="M23.5,34c0.1,0.2,0.2,0.4,0.2,0.6s-0.1,0.4-0.2,0.6c-0.1,0.1-0.2,0.2-0.3,0.2c0.2,0.1,0.4,0.2,0.5,0.4
	c0.1,0.2,0.2,0.4,0.2,0.6s-0.1,0.5-0.2,0.6c-0.1,0.1-0.2,0.2-0.3,0.3c-0.1,0.1-0.3,0.2-0.5,0.2c-0.2,0-0.4,0-0.6,0h-1.8v-4h2
	C22.9,33.5,23.3,33.7,23.5,34 M21.3,34.2v0.9h1c0.2,0,0.3,0,0.4-0.1s0.2-0.2,0.2-0.3c0-0.2-0.1-0.3-0.2-0.4c-0.1,0-0.3-0.1-0.5-0.1
	L21.3,34.2L21.3,34.2z M21.3,35.8v1.1h1c0.2,0,0.3,0,0.4-0.1c0.2-0.1,0.3-0.3,0.3-0.5c0-0.2-0.1-0.3-0.3-0.4c-0.1,0-0.2-0.1-0.4-0.1
	L21.3,35.8L21.3,35.8z"/>
<path class="st0" d="M25.6,33.5h1l1.4,4H27l-0.3-0.8h-1.5L25,37.5h-0.9C24.1,37.5,25.6,33.5,25.6,33.5z M25.5,36h1L26,34.4L25.5,36z
	"/>
<polygon class="st0" points="28.4,33.5 29.3,33.5 30.9,36.3 30.9,33.5 31.7,33.5 31.7,37.5 30.9,37.5 29.2,34.7 29.2,37.5 
	28.4,37.5 "/>
<polygon class="st0" points="32.4,33.5 33.2,33.5 33.2,35.2 34.8,33.5 35.9,33.5 34.2,35.2 36,37.5 34.9,37.5 33.7,35.8 33.2,36.2 
	33.2,37.5 32.4,37.5 "/>
<path class="st0" d="M38.1,34.4l0.5,1.6h-1L38.1,34.4z M37.6,33.5l-1.4,4h0.9l0.3-0.8h1.5l0.3,0.8H40l-1.4-4
	C38.6,33.5,37.6,33.5,37.6,33.5z"/>
<polygon class="st0" points="31.9,21.7 31.6,23 29.5,23 28.2,28.8 26.7,28.8 28,23 25.8,23 26.1,21.7 "/>
<path class="st0" d="M37.6,22.5c0.2,0.3,0.2,0.7,0.1,1.1c-0.1,0.4-0.3,0.8-0.6,1c-0.2,0.1-0.4,0.3-0.6,0.4c0.3,0.1,0.6,0.3,0.7,0.6
	c0.1,0.3,0.1,0.6,0.1,1c-0.1,0.4-0.3,0.8-0.6,1.1c-0.2,0.2-0.4,0.4-0.6,0.6c-0.3,0.2-0.6,0.3-0.9,0.4c-0.3,0.1-0.7,0.1-1,0.1H31
	l1.5-7.1H36C36.8,21.7,37.4,22,37.6,22.5 M33.1,25.7l-0.4,1.9h1.8c0.3,0,0.6,0,0.8-0.1c0.3-0.1,0.6-0.5,0.7-0.9
	c0.1-0.4,0-0.6-0.3-0.8c-0.2-0.1-0.4-0.1-0.7-0.1C34.8,25.7,33.1,25.7,33.1,25.7z M33.6,23l-0.3,1.6h1.8c0.3,0,0.6-0.1,0.8-0.2
	c0.2-0.1,0.4-0.3,0.4-0.6c0.1-0.3,0-0.5-0.2-0.7C35.8,23,35.6,23,35.2,23L33.6,23L33.6,23z"/>
<polygon class="st0" points="34.7,6.6 34.7,6.8 34.7,6.9 39.4,6.9 39.4,31.1 0.7,31.1 0.7,6.9 19.7,6.9 19.7,6.6 0.4,6.6 0.4,31.5 
	39.8,31.5 39.8,6.6 "/>
<polygon class="st0" points="7.1,28.8 18.3,9.3 13,9.3 1.7,28.8 "/>
<polygon class="st0" points="25.1,0 8.5,28.8 13.9,28.8 30.4,0 "/>
<polygon class="st0" points="20.6,28.8 34.6,4.6 29.2,4.6 15.3,28.8 "/>
<path class="st0" d="M0.5,41.5v-2.8h2.8v2.8C3.3,41.5,0.5,41.5,0.5,41.5z M0.4,38.6v3h3v-3H0.4z"/>
<path class="st0" d="M1.9,40.4l0.9,0.9L3.1,41l-0.9-0.9l0.2-0.2v-0.3l0.1-0.1v0.3l0.1,0.1l0.4-0.4l0.1,0.1c0-0.1,0-0.3-0.2-0.5
	c-0.2-0.2-0.5-0.1-0.5,0L2,39.4l0.1,0.1l-0.2,0.2l-0.2-0.2l0.1-0.1L1.3,39c-0.1-0.1-0.3-0.2-0.5,0c-0.2,0.2-0.2,0.5-0.2,0.5l0.1-0.1
	l0.4,0.4l0.1-0.1v-0.3l0.1,0.1v0.3l0.2,0.2L0.6,41L1,41.3L1.9,40.4L1.9,40.4z"/>
</svg>
